HIERARCHY
ROOT Hips
{
	OFFSET 0.000001 -0.000035 -0.000001
	CHANNELS 6 Xposition Yposition Zposition Zrotation Xrotation Yrotation
	JOINT RHip
	{
		OFFSET -0.104022 0.004302 -0.005826
		CHANNELS 3 Zrotation Xrotation Yrotation
		JOINT RKnee
		{
			OFFSET 0.046700 0.238435 -0.316769
			CHANNELS 3 Zrotation Xrotation Yrotation
			JOINT RFoot
			{
				OFFSET 0.048913 0.216782 -0.353015
				CHANNELS 3 Zrotation Xrotation Yrotation
				End Site
				{
					OFFSET 0 0 0
				}
			}
		}
	}
	JOINT LHip
	{
		OFFSET 0.104020 -0.004235 0.005827
		CHANNELS 3 Zrotation Xrotation Yrotation
		JOINT LKnee
		{
			OFFSET -0.026669 0.238977 -0.315891
			CHANNELS 3 Zrotation Xrotation Yrotation
			JOINT LFoot
			{
				OFFSET -0.049255 0.220780 -0.358986
				CHANNELS 3 Zrotation Xrotation Yrotation
				End Site
				{
					OFFSET 0 0 0
				}
			}
		}
	}
	JOINT Spine
	{
		OFFSET -0.009335 -0.218626 0.053763
		CHANNELS 3 Zrotation Xrotation Yrotation
		JOINT Thorax
		{
			OFFSET -0.006747 -0.254691 -0.047452
			CHANNELS 3 Zrotation Xrotation Yrotation
			JOINT Neck
			{
				OFFSET 0.011492 -0.050851 -0.078856
				CHANNELS 3 Zrotation Xrotation Yrotation
				JOINT Head
				{
					OFFSET -0.013675 -0.096756 0.041048
					CHANNELS 3 Zrotation Xrotation Yrotation
					End Site
					{
						OFFSET 0 0 0
					}
				}
			}
			JOINT LShoulder
			{
				OFFSET 0.116482 0.043069 0.018895
				CHANNELS 3 Zrotation Xrotation Yrotation
				JOINT LElbow
				{
					OFFSET 0.034233 0.237753 0.110798
					CHANNELS 3 Zrotation Xrotation Yrotation
					JOINT LWrist
					{
						OFFSET -0.016879 0.221336 0.067457
						CHANNELS 3 Zrotation Xrotation Yrotation
						End Site
						{
							OFFSET 0 0 0
						}
					}
				}
			}
			JOINT RShoulder
			{
				OFFSET -0.114854 0.048067 0.001229
				CHANNELS 3 Zrotation Xrotation Yrotation
				JOINT RElbow
				{
					OFFSET -0.032778 0.239235 0.100974
					CHANNELS 3 Zrotation Xrotation Yrotation
					JOINT RWrist
					{
						OFFSET 0.017391 0.221299 0.067053
						CHANNELS 3 Zrotation Xrotation Yrotation
						End Site
						{
							OFFSET 0 0 0
						}
					}
				}
			}
		}
	}
}
MOTION
Frames: 11
Frame Time: 0.020000
0.000001 -0.000035 -0.000001 0.000000 0.000000 0.000000 0.000000 0.000000 0.000000 0.000000 0.000000 0.000000 0.000000 0.000000 0.000000 0.000000 0.000000 0.000000 0.000000 0.000000 0.000000 0.000000 0.000000 0.000000 0.000000 0.000000 0.000000 0.000000 0.000000 0.000000 0.000000 0.000000 0.000000 0.000000 0.000000 0.000000 0.000000 0.000000 0.000000 0.000000 0.000000 0.000000 0.000000 0.000000 0.000000 0.000000 0.000000 0.000000 0.000000 0.000000 0.000000 0.000000 0.000000 0.000000
0.000001 -0.000035 -0.000001 0.016658 -0.032976 -0.777763 0.016658 -0.032976 -0.777763 -0.030561 -0.206723 -0.000060 0.043592 0.223712 0.020529 0.014953 -0.032408 -0.778219 0.027733 -0.215196 0.012623 -0.093862 0.202967 -0.107174 -0.289088 0.243555 -0.082070 -0.077395 0.318077 0.005782 0.520345 0.070877 -0.792137 -0.601904 0.402310 -0.314091 -0.060471 0.241973 -0.629510 -0.023460 0.360655 -0.041132 -0.510849 0.029743 0.157787 0.242952 -0.230629 -0.560584 0.473507 0.012554 -0.198204 0.244984 -0.294542 -0.051663
0.000001 -0.000035 -0.000001 -0.037742 -0.030330 -0.778490 -0.037742 -0.030330 -0.778490 -0.006938 -0.228477 0.035642 0.056828 0.306932 0.023334 -0.040100 -0.029738 -0.779152 0.054706 -0.234833 0.046121 -0.149345 0.358878 -0.162362 -0.349604 0.271257 -0.098338 -0.121796 0.339797 0.013337 0.682475 0.263138 -1.002199 -0.568613 0.604084 -0.329099 -0.050672 0.265155 -0.696552 -0.074424 0.532212 -0.042388 -0.924413 0.007223 0.282064 0.187200 -0.239680 -0.580111 0.816276 0.027848 -0.340887 0.407302 -0.367322 -0.095730
0.000001 -0.000035 -0.000001 -0.175498 -0.023243 -0.771215 -0.175498 -0.023243 -0.771215 -0.009706 -0.237994 0.033832 0.062394 0.413532 0.008472 -0.176911 -0.022676 -0.771311 0.067182 -0.265052 0.059255 -0.217801 0.537555 -0.233358 -0.413168 0.312068 -0.115994 -0.134174 0.353052 0.015242 0.894024 0.296899 -1.324594 -0.506555 0.880465 -0.342330 -0.073389 0.310000 -0.808771 -0.090812 0.675725 -0.055669 -1.379698 0.016183 0.421181 -0.018447 -0.261761 -0.624672 1.118754 -0.032335 -0.477536 0.636092 -0.470120 -0.158134
0.000001 -0.000035 -0.000001 -0.280195 -0.017479 -0.757324 -0.280195 -0.017479 -0.757324 -0.025590 -0.242811 0.013653 0.058944 0.510281 -0.018751 -0.280969 -0.016936 -0.757091 0.092814 -0.275910 0.091972 -0.296029 0.674752 -0.329206 -0.469919 0.331632 -0.131009 -0.124824 0.331159 0.014131 1.130742 0.273772 -1.698909 -0.558095 1.071461 -0.392135 -0.077833 0.345105 -0.902284 -0.051607 0.748764 -0.084361 -1.768081 0.003607 0.538489 -0.034729 -0.278340 -0.663582 1.450560 -0.131228 -0.632700 0.797410 -0.635642 -0.195650
0.000001 -0.000035 -0.000001 -0.395812 -0.010133 -0.720784 -0.395812 -0.010133 -0.720784 0.005294 -0.208220 0.047920 0.046966 0.612205 -0.060867 -0.396163 -0.009653 -0.721031 0.124399 -0.236934 0.138132 -0.367705 0.815371 -0.413512 -0.512111 0.350776 -0.142400 -0.058901 0.348321 0.001569 1.363477 0.347760 -2.046662 -0.509946 1.392603 -0.417474 -0.010827 0.375582 -1.012766 -0.013817 0.760687 -0.103503 -2.193455 -0.000039 0.667598 -0.055185 -0.288279 -0.686441 1.740538 -0.235217 -0.771417 1.023690 -0.778034 -0.255284
0.000001 -0.000035 -0.000001 -0.525457 -0.000068 -0.641971 -0.525457 -0.000068 -0.641971 0.043790 -0.175710 0.092703 0.006255 0.689923 -0.144034 -0.525013 0.000315 -0.642386 0.157190 -0.204119 0.185186 -0.428908 0.966061 -0.478529 -0.546251 0.356525 -0.151168 0.102509 0.321592 -0.027343 1.539764 0.430336 -2.304966 -0.449998 1.719541 -0.438156 0.089499 0.391518 -1.097145 0.095403 0.747450 -0.151904 -2.739573 0.067868 0.837263 -0.077136 -0.297242 -0.706884 2.027991 -0.323062 -0.907131 1.141879 -0.818715 -0.288961
0.000001 -0.000035 -0.000001 -0.593076 0.006273 -0.578925 -0.593076 0.006273 -0.578925 0.040678 -0.178394 0.089080 -0.043107 0.750617 -0.237335 -0.592257 0.006575 -0.579816 0.179533 -0.173890 0.218113 -0.483363 1.040290 -0.549611 -0.561233 0.326027 -0.153457 0.257642 0.211654 -0.053148 1.708233 0.412344 -2.572448 -0.458223 1.949445 -0.474577 0.155157 0.402245 -1.152944 0.237444 0.710577 -0.212045 -3.174724 0.123295 0.972038 -0.040627 -0.310883 -0.741006 2.293015 -0.423103 -1.035583 1.182544 -0.871206 -0.297914
0.000001 -0.000035 -0.000001 -0.649342 0.012116 -0.515641 -0.649342 0.012116 -0.515641 0.008271 -0.203212 0.050893 -0.091765 0.868889 -0.342021 -0.648459 0.012362 -0.516807 0.189177 -0.206347 0.227277 -0.539896 1.070080 -0.633878 -0.573535 0.261129 -0.153444 0.353715 0.037103 -0.066768 1.890447 0.368542 -2.866847 -0.554448 2.178528 -0.549632 0.197040 0.405731 -1.179383 0.367497 0.648799 -0.263173 -3.486427 0.201650 1.070189 -0.000671 -0.321663 -0.768506 2.492580 -0.425427 -1.121309 1.270413 -0.882720 -0.324321
0.000001 -0.000035 -0.000001 -0.696844 0.016365 -0.477674 -0.696844 0.016365 -0.477674 -0.013089 -0.222102 0.026204 -0.116847 0.991083 -0.409242 -0.696355 0.016597 -0.479035 0.202967 -0.255766 0.240052 -0.615921 1.090241 -0.751576 -0.559360 0.262546 -0.149993 0.385431 -0.008960 -0.071596 2.109460 0.352498 -3.213265 -0.612379 2.451411 -0.614296 0.246477 0.432770 -1.272320 0.457558 0.651098 -0.305015 -3.868910 0.273647 1.188965 -0.011822 -0.335838 -0.801865 2.775129 -0.405322 -1.239101 1.388644 -0.922927 -0.358211
0.000001 -0.000036 -0.000001 -0.682536 0.014216 -0.507413 -0.682536 0.014216 -0.507413 -0.020162 -0.237146 0.019759 -0.145803 1.028263 -0.464104 -0.682209 0.014464 -0.509015 0.224716 -0.305727 0.263309 -0.656778 1.049253 -0.826474 -0.561304 0.236402 -0.149240 0.416516 -0.000849 -0.077575 2.383958 0.334379 -3.647297 -0.702863 2.645176 -0.682227 0.321017 0.473840 -1.412835 0.550836 0.704430 -0.355518 -4.216682 0.342235 1.296686 -0.028409 -0.346816 -0.827325 3.059610 -0.351209 -1.352321 1.412289 -0.928411 -0.365168
